<?xml version="1.0" encoding="UTF-8"?>
<!DOCTYPE svg PUBLIC "-//W3C//DTD SVG 1.1//EN" "http://www.w3.org/Graphics/SVG/1.1/DTD/svg11.dtd">
<!-- Creator: CorelDRAW X5 -->
<svg xmlns="http://www.w3.org/2000/svg" xml:space="preserve" width="840.669mm" height="593.725mm" style="shape-rendering:geometricPrecision; text-rendering:geometricPrecision; image-rendering:optimizeQuality; fill-rule:evenodd; clip-rule:evenodd"
viewBox="0 0 840.669 593.725"
 xmlns:xlink="http://www.w3.org/1999/xlink">
 <defs>
  <style type="text/css">
   <![CDATA[
    .fil3 {fill:#B3B1B3}
    .fil2 {fill:#D73439}
    .fil0 {fill:#FEFEFE}
    .fil1 {fill:#B3B1B3;fill-rule:nonzero}
   ]]>
  </style>
 </defs>
 <g id="Layer_x0020_1">
  <metadata id="CorelCorpID_0Corel-Layer"/>
  <g id="_307400808">
   <path id="_303783792" class="fil0" d="M455.884 278.411l7.7124 -0.1701c1.6587,-0.261 2.1539,-0.614 3.2062,-1.1854 1.3038,-3.1852 4.6169,-6.5629 2.8819,-16.1314 -1.612,-8.8901 -9.3023,-21.5105 -9.2237,-21.8454 -0.3473,-0.399 -7.8645,0.8036 -8.4778,0.2873 -0.6056,0.1945 -1.1976,0.4183 -1.777,0.6665 0.552,0.6388 -3.3355,8.1373 -3.5229,16.5793 -0.1903,8.5708 5.297,20.1758 9.2009,21.7992z"/>
   <path id="_303785208" class="fil1" d="M428.237 289.537l-2.0246 0c0.0614,-0.9675 0.0921,-2.2151 0.0921,-3.7422 0,-1.1999 -0.0136,-2.0961 -0.0411,-2.6896 -0.0275,-0.1089 -0.1364,-0.1634 -0.3272,-0.1634l-0.0921 0 0 -0.3579 2.0144 0c-0.0475,0.9544 -0.0715,2.035 -0.0715,3.2413 0,1.732 0.0067,2.7916 0.0205,3.1804 0.0344,0.1158 0.1532,0.1738 0.3579,0.1738l0.0716 0 0 0.3576z"/>
   <path id="_303784848" class="fil1" d="M438.421 282.584l0 0.3577 -0.0879 0c-0.1499,0 -0.2475,0.0445 -0.2935,0.1329 -0.0388,1.4382 -0.0581,2.8599 -0.0581,4.264l0 2.2396 -0.9 0c-0.8999,-1.118 -2.3757,-2.771 -4.4278,-4.9592 -0.0136,0.4361 -0.0203,0.7871 -0.0203,1.0531 0,0.8044 0.0203,1.936 0.0614,3.3948 0.0475,0.0819 0.1463,0.1225 0.2965,0.1225l0.1022 0 0 0.3581 -1.6973 0 0 -0.3581 0.1022 0c0.15,0 0.2485,-0.0406 0.2965,-0.1228 0.075,-1.7407 0.1126,-3.5635 0.1126,-5.4688l0 -1.0754 0.9611 0c1.1929,1.3803 1.905,2.203 2.1371,2.4696 0.7566,0.8539 1.4994,1.6501 2.2293,2.3876 0.0067,-0.0544 0.0101,-0.2829 0.0101,-0.6851 0,-2.3242 -0.0257,-3.5311 -0.0767,-3.6199 -0.0512,-0.0884 -0.1517,-0.1329 -0.3017,-0.1329l-0.1022 0 0 -0.3577 1.6565 0z"/>
   <path id="_303784800" class="fil1" d="M446.827 283.667l-0.3579 0 0 -0.1022c0,-0.1433 -0.0237,-0.2455 -0.0715,-0.3066 -0.3819,-0.0748 -0.8182,-0.1126 -1.3088,-0.1126l-0.2455 0c-0.0342,0.5252 -0.0512,1.4043 -0.0512,2.6381 0,2.1748 0.0205,3.2789 0.0613,3.313 0.055,0.0545 0.1468,0.082 0.2763,0.082l0.1022 0 0 0.368 -1.9736 0c0.0272,-1.9973 0.0408,-3.2722 0.0408,-3.8241l0 -2.577 -0.2762 0c-0.4838,0 -0.9135,0.0208 -1.2882,0.0613 -0.075,0.0406 -0.1126,0.1602 -0.1126,0.3579l0 0.0921 -0.3579 0 0 -1.0737 5.5628 0 0 1.0838z"/>
   <path id="_303784728" class="fil1" d="M454.424 288.504l0 0.5317 0 0.5113 -4.4481 0c0.0475,-0.8794 0.0716,-2.0619 0.0716,-3.5479 0,-1.8823 -0.0218,-2.8599 -0.0649,-2.9349 -0.0435,-0.075 -0.1383,-0.1126 -0.2849,-0.1126l-0.1 0 0 -0.3681 4.683 0 0 1.0428 -0.3576 0c0,-0.2114 -0.0379,-0.3408 -0.1129,-0.3886 -0.6776,-0.054 -1.3798,-0.0814 -2.1055,-0.0814l-0.1334 0c-0.0136,0.7496 -0.0208,1.4518 -0.0208,2.1057l0 0.3381 2.485 -0.051 0 0.6952c-0.9475,-0.041 -1.7759,-0.0616 -2.485,-0.0616l0 0.3577c0,0.3821 0.0067,1.1932 0.0206,2.4339l0.1534 0c0.6611,0 1.411,-0.0305 2.2496,-0.0921 0.0614,-0.0475 0.092,-0.1737 0.092,-0.3782l0.3579 0z"/>
   <path id="_303784560" class="fil1" d="M463.607 289.557l-1.2069 0c-0.293,0 -0.4945,-0.0207 -0.6031,-0.0616 -0.1295,-0.0544 -0.2453,-0.1668 -0.348,-0.3373 -0.3814,-0.7361 -0.9947,-1.837 -1.8402,-3.3027l0.1532 0c1.0497,0 1.5749,-0.4876 1.5749,-1.4622 0,-0.4158 -0.0852,-0.7225 -0.2557,-0.9202 -0.2116,-0.2458 -0.5759,-0.3686 -1.094,-0.3686 -0.1435,0 -0.3477,0.0072 -0.6135,0.0208 -0.0344,0.2725 -0.0513,0.5968 -0.0513,0.9712l0 3.8554c0,0.3408 0.01,0.7293 0.0305,1.1654 0.0891,0.0478 0.2012,0.0716 0.3376,0.0716l0.1022 0 0 0.3682 -2.0246 0c0.0476,-0.8328 0.0716,-1.9908 0.0716,-3.4717 0,-1.9527 -0.0233,-2.965 -0.0701,-3.0368 -0.0465,-0.0715 -0.1433,-0.1074 -0.2901,-0.1074l-0.1002 0 0 -0.3579 0.5779 0 0.578 0c0.1227,0 0.4291,-0.0052 0.9204,-0.0151 0.4903,-0.0104 0.8484,-0.0156 1.0732,-0.0156 0.7633,0 1.3511,0.1497 1.7639,0.4497 0.4126,0.3002 0.6188,0.723 0.6188,1.2682 0,0.4841 -0.1228,0.8658 -0.3678,1.1455 -0.2661,0.2925 -0.6955,0.5046 -1.289,0.6336 0.4299,0.7091 1.0398,1.6741 1.8305,2.894 0.1639,0.1636 0.2931,0.2453 0.3888,0.2453l0.133 0 0 0.3682z"/>
   <path id="_303784512" class="fil2" d="M472.892 289.547l-1.0784 0 -0.916 0c-0.0406,-0.0547 -0.4393,-0.5796 -1.1959,-1.5746l-1.6056 -2.1166c0.5658,-0.6272 1.4556,-1.6397 2.6689,-3.0371 0.048,-0.0545 0.0816,-0.1329 0.1022,-0.2352l1.3803 0 0 0.3579 -0.1022 0c-0.2458,0 -0.5453,0.1701 -0.8994,0.5106 -0.4842,0.4695 -1.1084,1.1024 -1.8714,1.8986 0.7494,1.0618 1.7929,2.3211 3.1289,3.7771 0.0953,0.0411 0.1906,0.0614 0.2859,0.0614l0.1027 0 0 0.3579zm-4.407 0l0 0 -1.984 0c0.0413,-0.7908 0.0614,-1.7996 0.0614,-3.0267 0,-1.486 -0.0136,-2.6381 -0.0409,-3.4561 -0.048,-0.0819 -0.1465,-0.1228 -0.2965,-0.1228l-0.1024 0 0 -0.3579 1.9941 0c-0.048,0.5047 -0.0718,1.0737 -0.0718,1.7078l0 2.9138c0,0.6755 0.0139,1.2955 0.0411,1.8615 0.0475,0.0819 0.1497,0.1225 0.3064,0.1225l0.0926 0 0 0.3579z"/>
   <path id="_303784368" class="fil2" d="M481.818 286.075c0,-2.0553 -0.7494,-3.0826 -2.2492,-3.0826 -0.7228,0 -1.2781,0.2762 -1.667,0.8293 -0.3883,0.5532 -0.5826,1.3145 -0.5826,2.284 0,2.028 0.7499,3.0423 2.2496,3.0423 0.7496,0 1.3191,-0.2834 1.7077,-0.8504 0.3611,-0.5327 0.5415,-1.2734 0.5415,-2.2226zm1.6769 0.0153l0 0c0,1.0839 -0.3678,1.9551 -1.1039,2.6127 -0.7363,0.6576 -1.6768,0.987 -2.8222,0.987 -1.1727,0 -2.1199,-0.324 -2.8429,-0.9717 -0.7227,-0.6477 -1.0838,-1.5167 -1.0838,-2.6074 0,-1.0908 0.3678,-1.9699 1.1046,-2.6381 0.7359,-0.668 1.6769,-1.0022 2.8221,-1.0022 1.1657,0 2.1114,0.329 2.8375,0.9868 0.7262,0.6579 1.0886,1.5353 1.0886,2.6329z"/>
   <path id="_303784200" class="fil2" d="M488.986 289.537l-2.0243 0c0.0613,-0.9675 0.0918,-2.2151 0.0918,-3.7422 0,-1.1999 -0.0134,-2.0961 -0.0411,-2.6896 -0.027,-0.1089 -0.1359,-0.1634 -0.327,-0.1634l-0.0923 0 0 -0.3579 2.0145 0c-0.0473,0.9544 -0.0713,2.035 -0.0713,3.2413 0,1.732 0.0067,2.7916 0.0203,3.1804 0.0341,0.1158 0.1537,0.1738 0.3584,0.1738l0.071 0 0 0.3576z"/>
   <path id="_303784152" class="fil2" d="M458.187 238.391c-1.1682,0 -4.3217,0.2557 -6.2059,0.9727 -0.0077,0.7301 1.3966,1.6488 1.512,1.5721 2.5441,-1.6927 6.8481,-2.1112 5.072,-0.8019 -4.1748,3.0774 -4.2654,4.8894 -4.2654,4.8894 -0.6678,5.1295 1.5989,10.522 3.0185,12.5912 1.6397,2.3901 3.5903,4.3703 5.2963,6.8677 0.5346,-0.3384 2.629,-1.8177 3.646,-0.7849 1.1362,1.1534 -0.5973,2.9015 -1.6811,4.2501 0.6079,1.3392 1.1279,2.8478 1.512,4.6028 0.5564,2.5485 0.4874,4.1023 -0.1903,4.9013 7.3798,-3.0364 12.5771,-10.2946 12.5771,-18.7693 0,-11.2064 -9.0848,-20.2912 -20.2912,-20.2912z"/>
   <path id="_303783984" class="fil3" d="M463.858 278.12c-2.2741,-0.1121 -4.8746,-2.3389 -6.7766,-4.3471 -1.3046,0.6984 -4.0001,1.8963 -4.5224,0.1987 -0.4957,-1.6075 1.1234,-2.6067 2.0969,-3.049 -0.1753,-0.2299 -0.2728,-0.3658 -0.2728,-0.3658 -5.4181,-8.8897 -5.3277,-16.0666 -3.5568,-22.2865 0.0148,-0.052 0.0297,-0.1035 0.0445,-0.1552 0.1777,-0.6136 0.3757,-1.2155 0.5821,-1.811l-0.0168 0.0344c0.5455,-3.0826 -0.1181,-5.0188 -1.2306,-6.3061 -7.2369,3.0995 -12.3092,10.2795 -12.3092,18.6503 0,11.2069 9.0848,20.2914 20.2912,20.2914 2.0218,0 3.9726,-0.2999 5.8155,-0.8502 -0.048,-0.0009 -0.0958,-0.0014 -0.145,-0.0039z"/>
   <path id="_303783936" class="fil0" d="M451.453 246.304l2.4129 -4.9845c0,0 -0.1354,-0.1712 -0.3613,-0.4306 -0.1626,0.695 -0.4549,1.3405 -0.9888,2.6265 -0.3769,0.9091 -0.7336,1.8397 -1.0628,2.7886z"/>
  </g>
 </g>
</svg>
